HIERARCHY
ROOT Hips
{
    OFFSET 0.000000 0.000000 0.000000
    CHANNELS 6 Xposition Yposition Zposition Zrotation Xrotation Yrotation
    JOINT Spine
    {
        OFFSET -0.000000 14.517291 0.000000
        CHANNELS 3 Zrotation Xrotation Yrotation
        JOINT Spine1
        {
            OFFSET -0.000000 37.558300 0.000000
            CHANNELS 3 Zrotation Xrotation Yrotation
            JOINT Neck
            {
                OFFSET -0.000000 37.404057 3.400369
                CHANNELS 3 Zrotation Xrotation Yrotation
                JOINT Head
                {
                    OFFSET -0.000000 24.785618 -3.540803
                    CHANNELS 3 Zrotation Xrotation Yrotation
                    End Site
                    {
                        OFFSET -0.000000 35.408028 0.000000
                    }
                }
            }
            JOINT LeftShoulder
            {
                OFFSET 6.992933 33.973492 -0.192664
                CHANNELS 3 Zrotation Xrotation Yrotation
                JOINT LeftArm
                {
                    OFFSET 21.527611 0.000000 0.000000
                    CHANNELS 3 Zrotation Xrotation Yrotation
                    JOINT LeftForeArm
                    {
                        OFFSET 56.353916 0.000000 0.000000
                        CHANNELS 3 Zrotation Xrotation Yrotation
                        JOINT LeftHand
                        {
                            OFFSET 47.774071 0.000000 0.000000
                            CHANNELS 3 Zrotation Xrotation Yrotation
                            End Site
                            {
                                OFFSET 26.556021 0.000000 0.000000
                            }
                        }
                    }
                }
            }
            JOINT RightShoulder
            {
                OFFSET -7.065357 33.973492 -0.192664
                CHANNELS 3 Zrotation Xrotation Yrotation
                JOINT RightArm
                {
                    OFFSET -21.527611 0.000000 0.000000
                    CHANNELS 3 Zrotation Xrotation Yrotation
                    JOINT RightForeArm
                    {
                        OFFSET -56.353916 0.000000 0.000000
                        CHANNELS 3 Zrotation Xrotation Yrotation
                        JOINT RightHand
                        {
                            OFFSET -47.774071 0.000000 0.000000
                            CHANNELS 3 Zrotation Xrotation Yrotation
                            End Site
                            {
                                OFFSET -26.556021 0.000000 0.000000
                            }
                        }
                    }
                }
            }
        }
    }
    JOINT LeftUpLeg
    {
        OFFSET 17.704014 0.000000 0.000000
        CHANNELS 3 Zrotation Xrotation Yrotation
        JOINT LeftLeg
        {
            OFFSET -0.000000 -81.181816 0.000000
            CHANNELS 3 Zrotation Xrotation Yrotation
            JOINT LeftFoot
            {
                OFFSET -0.000000 -62.821102 0.000000
                CHANNELS 3 Zrotation Xrotation Yrotation
                JOINT LeftToeBase
                {
                    OFFSET -0.000000 -11.507608 26.556021
                    CHANNELS 3 Zrotation Xrotation Yrotation
                    End Site
                    {
                        OFFSET -0.000000 0.000000 7.081605
                    }
                }
            }
        }
    }
    JOINT RightUpLeg
    {
        OFFSET -17.704014 0.000000 0.000000
        CHANNELS 3 Zrotation Xrotation Yrotation
        JOINT RightLeg
        {
            OFFSET -0.000000 -81.181816 0.000000
            CHANNELS 3 Zrotation Xrotation Yrotation
            JOINT RightFoot
            {
                OFFSET -0.000000 -62.821102 0.000000
                CHANNELS 3 Zrotation Xrotation Yrotation
                JOINT RightToeBase
                {
                    OFFSET -0.000000 -11.507608 26.556021
                    CHANNELS 3 Zrotation Xrotation Yrotation
                    End Site
                    {
                        OFFSET -0.000000 0.000000 7.081605
                    }
                }
            }
        }
    }
}
MOTION
Frames:    9
Frame Time:    0.008333
-5.233625    143.480087    -26.230648    -26.221697    -2.960603    -67.973808    -0.321691    -7.101084    7.728177    -1.561441    1.251222    2.596968    10.595045    -7.814224    11.418592    0.849223    21.106606    9.541193    7.215341    -1.078033    -12.920850    -14.130518    -12.840364    -46.799541    4.588138    -45.346752    -34.917664    -27.788912    -35.277412    -45.068214    -11.898299    5.141317    3.039184    35.347027    10.920202    80.746414    9.187441    -5.121351    104.256577    3.388560    -16.204401    19.579191    38.848278    8.658161    -6.358541    -20.417673    47.210037    -9.896555    -3.570811    -30.064568    38.495975    0.000000    0.000000    0.000000    -14.244596    23.645231    -0.838226    3.077898    37.929840    6.272525    9.990376    -35.097195    2.739820    0.000000    0.000000    0.000000    
-5.200278    143.485962    -26.238594    -26.229435    -2.942870    -67.979607    -0.312103    -7.087183    7.727667    -1.566064    1.254954    2.596716    10.610558    -7.805675    11.426338    0.828918    21.102533    9.547617    7.212101    -1.079999    -12.912474    -14.174647    -12.898203    -46.832855    4.562488    -45.301323    -34.883205    -27.755627    -35.236286    -45.103008    -11.894495    5.131615    3.032775    35.338959    10.913988    80.749252    9.221231    -5.136356    104.260727    3.394696    -16.260902    19.583885    38.856506    8.654111    -6.360801    -20.412256    47.201988    -9.924913    -3.533552    -30.059635    38.528770    0.000000    0.000000    0.000000    -14.243155    23.636528    -0.849750    3.095999    37.914032    6.259452    9.989645    -35.073746    2.772042    0.000000    0.000000    0.000000    
-5.169512    143.493576    -26.242443    -26.234024    -2.932981    -67.978752    -0.310654    -7.076494    7.723846    -1.573375    1.263824    2.595592    10.631445    -7.792396    11.428346    0.806862    21.091923    9.547456    7.225023    -1.083710    -12.910793    -14.211510    -12.915194    -46.859447    4.576575    -45.301056    -34.853336    -27.752522    -35.236233    -45.096062    -11.886203    5.114690    3.022019    35.338905    10.909634    80.741524    9.247138    -5.145723    104.268303    3.407661    -16.302258    19.578199    38.852497    8.646755    -6.357183    -20.390526    47.200542    -9.937496    -3.506375    -30.049675    38.528263    0.000000    0.000000    0.000000    -14.249653    23.636608    -0.858200    3.126508    37.887157    6.269031    9.969464    -35.058712    2.756860    0.000000    0.000000    0.000000    
-5.139670    143.499954    -26.247379    -26.234150    -2.919746    -67.979050    -0.307379    -7.071406    7.720429    -1.574597    1.267051    2.594448    10.626866    -7.776141    11.429637    0.824892    21.093960    9.550478    7.224389    -1.081381    -12.920426    -14.236125    -12.939528    -46.871349    4.422936    -45.490704    -34.897228    -27.965498    -35.355892    -45.350075    -11.886962    5.096725    3.029809    35.360992    10.901471    80.712387    9.280596    -5.140458    104.277100    3.414836    -16.339659    19.579090    38.853626    8.635663    -6.348697    -20.376825    47.196659    -9.948379    -3.490283    -30.041851    38.533508    0.000000    0.000000    0.000000    -14.247683    23.634663    -0.874300    3.132520    37.854275    6.304193    9.956192    -35.047005    2.740736    0.000000    0.000000    0.000000    
-5.108661    143.512283    -26.253059    -26.234797    -2.916313    -67.970734    -0.318163    -7.057644    7.709304    -1.571827    1.268721    2.590935    10.629536    -7.759698    11.432337    0.834973    21.094835    9.553768    7.231222    -1.078691    -12.925502    -14.251672    -12.948309    -46.881351    4.422166    -45.484386    -34.891235    -27.945305    -35.362652    -45.323975    -11.888745    5.083029    3.025643    35.387474    10.892608    80.692398    9.316464    -5.128548    104.285812    3.428777    -16.372755    19.584864    38.842636    8.621847    -6.333236    -20.337914    47.197529    -9.970991    -3.483073    -30.022118    38.517384    0.000000    0.000000    0.000000    -14.243567    23.642975    -0.877499    3.147578    37.809906    6.259870    9.993812    -35.030998    2.771237    0.000000    0.000000    0.000000    
-5.079696    143.527283    -26.261267    -26.231642    -2.906399    -67.960770    -0.321524    -7.061246    7.698299    -1.575889    1.284471    2.587585    10.633251    -7.738344    11.429676    0.864358    21.094881    9.550815    7.250808    -1.072612    -12.930582    -14.251848    -12.925165    -46.889446    4.457590    -45.505424    -34.876400    -27.957129    -35.374435    -45.323055    -11.874807    5.082645    3.021708    35.383862    10.880507    80.687416    9.322528    -5.162675    104.294640    3.419709    -16.417557    19.552731    38.837307    8.607587    -6.311603    -20.296513    47.190399    -10.000912    -3.479245    -30.014719    38.522579    0.000000    0.000000    0.000000    -14.227240    23.642635    -0.867885    3.159879    37.772160    6.255481    9.979932    -35.007305    2.736681    0.000000    0.000000    0.000000    
-5.042649    143.543365    -26.272383    -26.220900    -2.896195    -67.943733    -0.337997    -7.053482    7.681534    -1.558862    1.279801    2.582067    10.659227    -7.707617    11.434855    0.836090    21.081278    9.554813    7.258777    -1.066078    -12.931529    -14.246012    -12.883804    -46.900066    4.489362    -45.560940    -34.880478    -27.980106    -35.434017    -45.274601    -11.876757    5.073669    3.005713    35.420948    10.849877    80.666382    9.377280    -5.109444    104.297760    3.404593    -16.437731    19.576067    38.834610    8.575245    -6.330232    -20.311300    47.168018    -9.977686    -3.461842    -29.987818    38.541763    0.000000    0.000000    0.000000    -14.207447    23.635981    -0.852782    3.178107    37.729610    6.211163    9.984201    -34.982426    2.744076    0.000000    0.000000    0.000000    
-5.008724    143.565369    -26.284584    -26.209412    -2.879638    -67.919304    -0.351738    -7.055143    7.659591    -1.538064    1.281109    2.574828    10.661087    -7.686418    11.425240    0.845385    21.086826    9.545905    7.265550    -1.063618    -12.944472    -14.248465    -12.852711    -46.900845    4.503000    -45.579742    -34.885654    -28.013586    -35.433708    -45.300491    -11.874408    5.058187    3.001760    35.451492    10.848203    80.637161    9.384234    -5.106091    104.307312    3.384998    -16.448891    19.565699    38.834259    8.533600    -6.334537    -20.288733    47.159260    -9.984678    -3.487067    -29.970829    38.534489    0.000000    0.000000    0.000000    -14.172967    23.631653    -0.865846    3.176355    37.682068    6.214056    9.981366    -34.949551    2.714674    0.000000    0.000000    0.000000    
-4.969696    143.586838    -26.298613    -26.190903    -2.862282    -67.896141    -0.362670    -7.057230    7.634054    -1.526153    1.275612    2.566322    10.674262    -7.661404    11.428956    0.858164    21.098402    9.548573    7.271269    -1.049249    -12.947788    -14.235336    -12.817304    -46.902100    4.504827    -45.607876    -34.906288    -28.049219    -35.445827    -45.327541    -11.854239    5.066986    2.997218    35.445534    10.842517    80.631027    9.363684    -5.144291    104.307686    3.380627    -16.460667    19.552965    38.838768    8.493901    -6.359429    -20.297377    47.127655    -9.980540    -3.475084    -29.937941    38.542156    0.000000    0.000000    0.000000    -14.143765    23.618996    -0.851436    3.201465    37.632046    6.183567    9.965060    -34.919941    2.679118    0.000000    0.000000    0.000000    
